<svg width="32" height="32" viewBox="0 0 32 32" fill="none" xmlns="http://www.w3.org/2000/svg">
  <rect width="32" height="32" rx="8" fill="#0071bc"/>
  <path d="M22 11H20V10C20 8.89543 19.1046 8 18 8H14C12.8954 8 12 8.89543 12 10V11H10C8.89543 11 8 11.8954 8 13V22C8 23.1046 8.89543 24 10 24H22C23.1046 24 24 23.1046 24 22V13C24 11.8954 23.1046 11 22 11ZM14 10H18V11H14V10ZM22 22H10V13H12V14C12 14.5523 12.4477 15 13 15C13.5523 15 14 14.5523 14 14V13H18V14C18 14.5523 18.4477 15 19 15C19.5523 15 20 14.5523 20 14V13H22V22Z" fill="white"/>
</svg>
